<?xml version="1.0" standalone="no"?>
<!DOCTYPE svg PUBLIC "-//W3C//DTD SVG 20010904//EN"
 "http://www.w3.org/TR/2001/REC-SVG-20010904/DTD/svg10.dtd">
<svg version="1.0" xmlns="http://www.w3.org/2000/svg"
 width="463.000000pt" height="530.000000pt" viewBox="0 0 463.000000 530.000000"
 preserveAspectRatio="xMidYMid meet">

<g transform="translate(0.000000,530.000000) scale(0.100000,-0.100000)"
fill="#000000" stroke="none">
<path style="fill: white;" d="M3070 5224 c-139 -18 -336 -94 -443 -170 -221 -158 -347 -387 -349
-635 -1 -116 13 -179 61 -284 86 -184 242 -329 590 -545 172 -108 292 -206
363 -298 95 -125 47 -165 -128 -106 -552 186 -1041 625 -1144 1028 -10 39 -25
130 -34 201 -46 366 -126 475 -345 475 -293 0 -709 -248 -938 -557 -117 -157
-191 -325 -219 -493 -21 -126 -18 -132 24 -44 78 159 230 360 407 537 257 258
493 397 672 397 79 0 132 -25 173 -81 38 -54 52 -97 100 -332 44 -211 80 -313
159 -446 182 -307 497 -578 891 -768 63 -30 145 -66 181 -78 292 -101 480 -10
425 205 -25 97 -75 186 -148 265 -77 83 -147 133 -381 273 -206 125 -295 191
-386 288 -119 128 -168 255 -158 409 7 107 37 197 95 286 171 262 532 403 822
322 232 -64 463 -306 465 -485 0 -53 -3 -60 -40 -98 -40 -41 -40 -42 -38 -113
0 -40 13 -124 27 -187 14 -63 26 -121 26 -129 0 -29 -41 23 -132 171 l-93 150
-87 44 c-103 52 -155 94 -167 138 l-9 31 -1 -31 c-2 -49 37 -94 134 -158 88
-58 93 -63 145 -155 85 -152 137 -226 196 -281 58 -52 99 -65 111 -33 4 9 -8
80 -25 157 -38 167 -53 273 -46 303 4 12 17 29 31 38 36 24 63 90 63 156 1
240 -259 528 -550 608 -74 21 -231 34 -300 25z"/>
<path style="fill: white;" d="M2940 4405 c-57 -92 -33 -183 74 -290 75 -75 172 -132 331 -195 397
-157 661 -391 757 -672 29 -84 32 -104 31 -208 -1 -146 -29 -259 -113 -448
-110 -251 -265 -501 -467 -752 -117 -147 -374 -410 -521 -534 -51 -44 -90 -81
-88 -83 7 -7 179 96 256 152 299 220 628 589 883 992 172 272 247 506 234 725
-6 111 -26 188 -72 285 -47 101 -86 154 -179 252 -160 164 -380 292 -681 395
-191 65 -284 110 -350 168 -75 66 -98 128 -75 207 13 47 7 49 -20 6z"/>
<path style="fill: white;" d="M1275 4393 c-96 -51 -259 -214 -348 -349 -168 -254 -290 -585 -342
-933 -20 -134 -20 -408 0 -524 29 -163 89 -335 147 -421 l23 -34 1 292 c0 301
10 424 55 694 82 496 298 1035 505 1265 30 32 40 48 32 47 -2 0 -34 -17 -73
-37z"/>
<path style="fill: white;" d="M1383 3871 c-221 -160 -298 -714 -158 -1138 19 -56 46 -124 60 -150
l26 -48 -6 50 c-3 28 -11 86 -17 130 -19 131 -16 588 5 727 21 143 67 300 113
391 19 37 30 67 25 67 -4 0 -26 -13 -48 -29z"/>
<path style="fill: white;" d="M2010 2661 c-122 -50 -259 -149 -365 -264 -88 -95 -156 -190 -314
-440 -72 -115 -163 -252 -203 -305 -83 -113 -480 -515 -638 -647 -101 -84
-328 -240 -437 -301 -41 -22 -53 -35 -53 -53 0 -23 0 -23 92 -16 236 16 355
43 427 95 24 18 44 30 45 28 1 -2 8 -15 15 -30 22 -43 61 -45 134 -7 74 38
318 189 439 271 182 124 135 117 -151 -22 -112 -55 -205 -100 -208 -100 -2 0
-2 14 2 30 5 21 2 39 -10 56 l-17 26 76 74 c127 125 217 252 475 673 344 560
503 763 726 928 36 27 25 28 -35 4z"/>
<path style="fill: blue;" d="M3761 1549 c-69 -6 -271 -46 -271 -53 0 -1 62 0 138 2 281 9 490 -55
566 -172 32 -49 33 -83 3 -127 -30 -44 -74 -73 -152 -99 -205 -68 -430 -67
-1150 4 -439 44 -473 47 -693 47 -386 1 -651 -50 -792 -152 -107 -78 -108
-185 -2 -280 155 -139 520 -245 942 -274 379 -25 586 -58 620 -100 59 -71
-176 -144 -670 -210 -351 -46 -570 -59 -1052 -59 -497 -1 -496 1 -41 -51 214
-24 246 -25 835 -25 569 0 622 2 733 20 302 51 475 115 553 205 42 48 49 77
26 126 -59 133 -377 236 -893 289 -388 40 -610 99 -699 183 -64 61 -29 126 90
164 118 39 210 48 473 47 213 0 318 -7 710 -43 782 -74 1113 -59 1345 59 312
159 89 450 -381 500 -104 11 -118 11 -238 -1z"/>
</g>
</svg>
